<svg width="512" height="512" viewBox="0 0 512 512" fill="none" xmlns="http://www.w3.org/2000/svg">
<g clip-path="url(#clip0)">
<path d="M256 206.631C304.049 206.631 343 167.68 343 119.631C343 71.5823 304.049 32.6311 256 32.6311C207.951 32.6311 169 71.5823 169 119.631C169 167.68 207.951 206.631 256 206.631Z" fill="#6777EF"/>
<path d="M432 206.63C462.376 206.63 487 182.006 487 151.63C487 121.254 462.376 96.6301 432 96.6301C401.624 96.6301 377 121.254 377 151.63C377 182.006 401.624 206.63 432 206.63Z" fill="#5763B8"/>
<path d="M80 206.63C110.376 206.63 135 182.006 135 151.63C135 121.254 110.376 96.6301 80 96.6301C49.6243 96.6301 25 121.254 25 151.63C25 182.006 49.6243 206.63 80 206.63Z" fill="#5763B8"/>
<path d="M134.19 256.021C112.54 238.283 92.933 240.631 67.9 240.631C30.46 240.631 0 270.911 0 308.121V417.331C0 433.491 13.19 446.631 29.41 446.631C99.436 446.631 91 447.898 91 443.611C91 366.225 81.834 309.474 134.19 256.021V256.021Z" fill="#5763B8"/>
<path d="M279.81 241.03C236.086 237.383 198.081 241.072 165.3 268.13C110.443 312.07 121 371.233 121 443.61C121 462.759 136.58 478.63 156.02 478.63C367.102 478.63 375.503 485.439 388.02 457.72C392.125 448.346 391 451.325 391 361.65C391 290.424 329.327 241.03 279.81 241.03V241.03Z" fill="#6777EF"/>
<path d="M444.1 240.63C418.93 240.63 399.431 238.306 377.81 256.02C429.775 309.076 421 361.955 421 443.61C421 447.924 413.997 446.63 481.54 446.63C498.34 446.63 512 433.02 512 416.29V308.12C512 270.91 481.54 240.63 444.1 240.63Z" fill="#5763B8"/>
</g>
<defs>
<clipPath id="clip0">
<rect width="512" height="512" fill="white"/>
</clipPath>
</defs>
</svg>
